# xmcd CD database file
#
# Track frame offsets:
#	150
#	29172
#	59821
#	82921
#	99206
#	127320
#	143169
#	173748
#	193388
#	226572
#	246841
#	271186
#
# Disc length: 4102 seconds
#
# Revision: 0
# Processed by: cddbd v1.5.2PL0 Copyright (c) Steve Scherf et al.
# Submitted via: CDex 1.51
#
DISCID=a910040c
DTITLE=Klaus Ignatzek - Smile with Claudio Roditi
DYEAR=2005
DGENRE=Jazz
TTITLE0=Light in the dark
TTITLE1=Little sunflower
TTITLE2=Eu e a brisa
TTITLE3=Believe it or not
TTITLE4=Corcovado
TTITLE5=Cantaloupe island
TTITLE6=Misty
TTITLE7=The shadow of your smile
TTITLE8=The monster and the flower
TTITLE9=Obrigado
TTITLE10=Moonlight and tears
TTITLE11=The girl from Ipanema
EXTD=YEAR: 2005
EXTT0=
EXTT1=
EXTT2=
EXTT3=
EXTT4=
EXTT5=
EXTT6=
EXTT7=
EXTT8=
EXTT9=
EXTT10=
EXTT11=
PLAYORDER=
